<svg xmlns="http://www.w3.org/2000/svg" viewBox="0 0 32 32" width="32" height="32">
  <defs>
    <!-- Gradiente laranja para o F -->
    <linearGradient id="orangeGradient" x1="0%" y1="0%" x2="100%" y2="100%">
      <stop offset="0%" style="stop-color:#FFA500;stop-opacity:1" />
      <stop offset="100%" style="stop-color:#FF7300;stop-opacity:1" />
    </linearGradient>

    <!-- Padrão xadrez em azul turquesa para o 1 -->
    <pattern id="turquoiseCheckerboard" x="0" y="0" width="2" height="2" patternUnits="userSpaceOnUse">
      <rect x="0" y="0" width="1" height="1" fill="#00CED1"/>
      <rect x="1" y="1" width="1" height="1" fill="#00CED1"/>
      <rect x="1" y="0" width="1" height="1" fill="#E0FFFF"/>
      <rect x="0" y="1" width="1" height="1" fill="#E0FFFF"/>
    </pattern>
  </defs>

  <!-- Letra F laranja -->
  <path d="M 4 6 L 4 26 L 8 26 L 8 18 L 16 18 L 16 14 L 8 14 L 8 10 L 18 10 L 18 6 Z"
        fill="url(#orangeGradient)"
        stroke="#cc6600"
        stroke-width="0.2"/>

  <!-- Número 1 com chapéu inclinado e corpo grosso em turquesa -->
  <path d="M 21 6 L 17 9 L 23 9 L 23 26 L 26 26 L 26 6 Z"
        fill="url(#turquoiseCheckerboard)"
        stroke="#006666"
        stroke-width="0.2"/>

  <!-- Sombra do F -->
  <path d="M 4.5 6.5 L 4.5 26.5 L 8.5 26.5 L 8.5 18.5 L 16.5 18.5 L 16.5 14.5 L 8.5 14.5 L 8.5 10.5 L 18.5 10.5 L 18.5 6.5 Z"
        fill="#000000"
        opacity="0.1"
        transform="translate(0.5, 0.5)"/>

  <!-- Sombra do 1 -->
  <path d="M 21.5 6.5 L 17.5 9.5 L 23.5 9.5 L 23.5 26.5 L 26.5 26.5 L 26.5 6.5 Z"
        fill="#000000"
        opacity="0.1"
        transform="translate(0.5, 0.5)"/>
</svg>
