<svg xmlns="http://www.w3.org/2000/svg" viewBox="0 0 32 32" width="32" height="32">
  <defs>
    <!-- Gradiente para o F vermelho -->
    <linearGradient id="redGradient" x1="0%" y1="0%" x2="100%" y2="100%">
      <stop offset="0%" style="stop-color:#ff1e1e;stop-opacity:1" />
      <stop offset="100%" style="stop-color:#cc0000;stop-opacity:1" />
    </linearGradient>
    
    <!-- Padrão xadrez para o 1 -->
    <pattern id="checkerboard" x="0" y="0" width="2" height="2" patternUnits="userSpaceOnUse">
      <rect x="0" y="0" width="1" height="1" fill="#000000"/>
      <rect x="1" y="1" width="1" height="1" fill="#000000"/>
      <rect x="1" y="0" width="1" height="1" fill="#ffffff"/>
      <rect x="0" y="1" width="1" height="1" fill="#ffffff"/>
    </pattern>
  </defs>
  
  <!-- Letra F vermelha -->
  <path d="M 4 6 L 4 26 L 8 26 L 8 18 L 16 18 L 16 14 L 8 14 L 8 10 L 18 10 L 18 6 Z" 
        fill="url(#redGradient)" 
        stroke="#990000" 
        stroke-width="0.2"/>
  
  <!-- Número 1 com padrão xadrez -->
  <path d="M 20 6 L 20 10 L 18 10 L 18 14 L 20 14 L 20 22 L 18 22 L 18 26 L 28 26 L 28 22 L 24 22 L 24 6 Z" 
        fill="url(#checkerboard)" 
        stroke="#333333" 
        stroke-width="0.2"/>
  
  <!-- Sombra sutil para dar profundidade -->
  <path d="M 4.5 6.5 L 4.5 26.5 L 8.5 26.5 L 8.5 18.5 L 16.5 18.5 L 16.5 14.5 L 8.5 14.5 L 8.5 10.5 L 18.5 10.5 L 18.5 6.5 Z" 
        fill="#000000" 
        opacity="0.1" 
        transform="translate(0.5, 0.5)"/>
  
  <path d="M 20.5 6.5 L 20.5 10.5 L 18.5 10.5 L 18.5 14.5 L 20.5 14.5 L 20.5 22.5 L 18.5 22.5 L 18.5 26.5 L 28.5 26.5 L 28.5 22.5 L 24.5 22.5 L 24.5 6.5 Z" 
        fill="#000000" 
        opacity="0.1" 
        transform="translate(0.5, 0.5)"/>
</svg> 